<?xml version="1.0" encoding="UTF-8"?><svg id="Capa_2" xmlns="http://www.w3.org/2000/svg" xmlns:xlink="http://www.w3.org/1999/xlink" viewBox="0 0 59 50.75004"><defs><linearGradient id="Degradado_sin_nombre_7" x1="24" y1="25.099" x2="59" y2="25.099" gradientUnits="userSpaceOnUse"><stop offset="0" stop-color="#6abde7"/><stop offset="1" stop-color="#92f3da"/></linearGradient><linearGradient id="Degradado_sin_nombre_10" x1="0" y1="25.37502" x2="24.9505" y2="25.37502" gradientUnits="userSpaceOnUse"><stop offset="0" stop-color="#63b4eb"/><stop offset="1" stop-color="#5ab5f0"/></linearGradient></defs><g id="Capa_2-2"><polygon points="24 4.46533 24 18.1485 34 36.46533 37.92079 36.46533 50 16.46533 50 47.73266 52 47.46533 59 40.46533 59 4.46533 57 2.46533 50.57426 2.46533 37 23.46533 36 23.46533 24 4.46533" fill="url(#Degradado_sin_nombre_7)"/></g><g id="Capa_3"><path d="m6,4.46533h7.81189v31.98019c-.91183,1.63376-2.41885,3.87897-4.81189,6.01981-3.40094,3.04251-6.93088,4.38861-9,5v1.81189c.72116.41644,1.73083.89221,3,1.18811,2.1474.50064,3.96472.23621,5,0,1.65512-.23666,5.43375-1.00787,9-4,4.43048-3.71722,5.66516-8.4559,6-10V2.46533h1.9505V0l-13.9505.46533-5,4Z" fill="url(#Degradado_sin_nombre_10)"/></g></svg>