<svg xmlns="http://www.w3.org/2000/svg" width="1280" height="813" viewBox="0 0 1280 813">
<g>
<path d="M 0.11 654.25 L 0.00 813.00 L 0.00 0.00 L 1280.00 0.00 L 1040.75 0.17 C910.51,0.26 805.47,0.49 805.47,0.68 C805.47,0.68 805.48,0.68 805.50,0.68 C820.61,2.00 834.34,7.42 848.02,17.46 C859.15,25.63 872.46,32.93 893.86,42.60 C922.31,55.46 929.39,59.67 954.00,78.33 C976.86,95.67 999.33,115.00 1027.11,141.21 C1035.14,148.80 1041.98,155.00 1042.31,155.00 C1042.63,155.00 1042.28,153.52 1041.52,151.71 C1040.11,148.33 1038.33,136.00 1039.25,136.00 C1039.54,136.00 1042.47,139.71 1045.77,144.25 C1051.25,151.79 1069.60,170.73 1070.53,169.81 C1070.74,169.59 1070.04,166.58 1068.96,163.12 C1067.88,159.66 1067.01,155.85 1067.02,154.66 C1067.04,152.86 1067.65,153.25 1070.75,157.00 C1072.79,159.48 1079.43,166.68 1085.52,173.00 C1095.23,183.09 1097.28,185.86 1102.24,195.57 C1114.82,220.19 1127.76,257.19 1132.42,281.86 C1133.94,289.92 1134.56,301.00 1133.48,301.00 C1133.19,301.00 1130.15,298.84 1126.73,296.20 C1111.30,284.30 1096.52,276.72 1088.50,276.58 C1074.87,276.36 1066.82,288.98 1069.44,306.47 C1070.41,312.89 1072.00,312.09 1072.00,305.18 C1072.00,297.00 1074.53,289.27 1078.50,285.30 C1081.55,282.25 1082.29,282.00 1088.15,282.02 C1093.73,282.03 1095.49,282.57 1102.73,286.45 C1113.31,292.13 1125.87,301.56 1144.00,317.44 C1159.96,331.42 1188.29,353.10 1200.00,360.29 C1209.08,365.86 1216.97,369.43 1225.85,371.96 C1237.85,375.38 1257.92,374.36 1274.73,369.48 L 1280.00 367.94 L 1280.00 369.13 L 1274.74 374.39 C1264.04,385.09 1246.86,391.00 1226.45,391.00 C1212.28,391.00 1201.95,389.28 1186.79,384.38 C1169.92,378.94 1134.37,363.73 1110.65,351.82 C1106.33,349.65 1102.56,348.10 1102.28,348.38 C1101.70,348.96 1113.39,356.67 1119.68,359.85 C1121.98,361.02 1124.11,362.38 1124.42,362.87 C1125.03,363.86 1114.74,387.38 1110.70,394.21 C1106.42,401.47 1101.19,406.76 1095.61,409.49 C1089.80,412.33 1087.39,412.23 1081.01,408.85 C1076.36,406.38 1075.93,406.50 1077.11,409.89 C1078.55,414.01 1076.12,419.24 1071.33,422.37 C1069.22,423.74 1061.65,427.19 1054.50,430.03 C1035.85,437.43 1027.66,441.64 1018.14,448.74 C1010.23,454.64 1005.92,456.30 1004.50,454.00 C1003.13,451.79 1002.49,453.29 1002.39,458.96 C1002.28,465.25 1000.55,469.10 997.00,471.00 C992.44,473.44 979.53,466.71 975.64,459.86 C973.67,456.40 973.64,455.76 974.85,446.01 C976.41,433.51 977.22,431.22 981.21,427.88 C984.23,425.36 984.30,425.14 983.00,422.00 C980.92,416.99 977.13,413.00 974.43,413.00 C971.45,413.00 971.20,414.08 970.73,429.00 C970.39,439.64 969.18,445.00 967.10,445.00 C965.40,445.00 958.40,438.70 955.75,434.77 C951.79,428.90 952.11,425.18 957.51,414.50 C962.12,405.39 965.01,394.84 964.91,387.50 C964.86,383.55 964.83,383.58 963.11,389.50 C961.18,396.16 958.38,402.00 957.14,402.00 C956.69,402.00 955.12,396.94 953.64,390.75 C945.13,355.04 944.15,339.99 949.36,325.00 C954.49,310.27 962.06,300.50 972.37,295.33 C981.50,290.74 991.82,284.02 994.92,280.64 C997.92,277.38 997.66,277.37 990.37,280.60 C987.14,282.03 979.63,284.48 973.67,286.04 C966.98,287.80 961.55,289.87 959.46,291.46 L 956.09 294.04 L 955.01 289.77 C951.25,274.89 944.88,262.97 935.82,253.91 C929.96,248.06 927.45,247.37 932.17,252.91 C937.24,258.86 941.86,267.05 944.74,275.17 C946.78,280.95 947.42,284.93 947.75,294.00 C948.15,304.76 948.01,305.88 945.53,311.42 C944.07,314.67 942.31,319.85 941.61,322.92 C940.13,329.46 937.65,331.02 931.28,329.42 C928.35,328.68 927.55,328.02 927.74,326.48 C928.16,322.94 926.06,299.15 924.90,294.26 C921.59,280.32 911.26,265.70 896.19,253.64 L 889.77 248.50 L 889.55 241.50 C889.29,233.21 886.98,225.65 883.42,221.50 C880.92,218.58 880.87,218.57 881.49,221.00 C885.10,235.14 884.28,245.56 878.96,252.89 C874.00,259.74 867.79,261.61 860.31,258.49 C855.78,256.59 855.09,257.14 858.58,259.88 C865.43,265.27 874.64,264.51 883.06,257.86 C885.74,255.74 888.56,254.00 889.32,254.00 C891.96,254.00 899.06,260.07 903.66,266.27 C914.33,280.64 921.00,302.66 921.00,323.51 C921.00,333.12 918.88,342.35 914.87,350.25 C912.76,354.40 911.89,354.77 909.91,352.39 C907.77,349.82 898.85,346.30 878.00,339.83 C855.23,332.75 842.38,327.03 832.43,319.54 C822.76,312.27 818.62,305.74 811.58,286.66 C808.40,278.06 804.50,269.23 802.91,267.03 C799.27,262.01 792.06,258.30 782.31,256.43 C771.41,254.35 770.77,254.65 777.96,258.53 C789.85,264.93 795.80,272.67 796.73,282.96 C797.38,290.11 796.26,291.24 789.89,289.88 C787.24,289.32 783.25,289.25 780.46,289.71 L 775.62 290.53 L 786.52 295.82 C805.22,304.91 817.78,315.71 823.64,327.71 C826.15,332.85 826.47,334.60 826.49,343.25 C826.49,348.61 826.76,353.00 827.08,353.00 C828.23,353.00 831.89,348.43 832.93,345.68 C833.52,344.14 834.00,340.60 834.00,337.83 C834.00,334.18 834.34,332.93 835.25,333.32 C835.94,333.62 840.10,335.40 844.50,337.29 C848.90,339.17 861.28,343.71 872.00,347.38 C896.45,355.74 901.25,358.07 907.60,364.67 C916.24,373.63 921.45,386.92 924.08,406.66 C926.21,422.71 924.16,431.07 915.70,440.85 C909.51,447.99 905.11,455.39 900.86,465.84 C898.73,471.07 895.59,477.86 893.88,480.93 C889.45,488.85 869.62,515.20 864.82,519.54 C858.25,525.48 855.74,526.10 839.71,525.78 L 825.50 525.50 L 817.56 529.72 C813.19,532.04 809.44,533.77 809.23,533.57 C809.02,533.36 809.33,531.46 809.92,529.34 C811.50,523.63 812.48,510.00 811.30,510.00 C809.54,510.00 807.77,515.34 806.96,523.09 C806.05,531.82 802.06,541.59 797.07,547.26 C792.95,551.96 781.38,557.76 768.66,561.49 C761.60,563.57 758.36,564.10 757.16,563.39 C756.25,562.85 753.95,559.35 752.07,555.61 C749.19,549.93 748.56,547.47 748.20,540.58 C747.46,526.46 753.70,495.54 759.82,483.00 C762.41,477.69 762.65,477.49 766.90,477.19 C769.32,477.01 775.62,477.59 780.90,478.47 C786.18,479.35 794.78,480.39 800.00,480.78 L 809.50 481.50 L 809.33 486.29 C809.24,488.92 808.24,492.95 807.11,495.24 C805.98,497.52 805.21,499.54 805.40,499.73 C805.58,499.92 807.08,498.54 808.72,496.67 C810.60,494.53 812.39,490.71 813.55,486.38 C817.16,472.85 821.70,465.72 829.10,461.95 C832.35,460.29 834.16,460.10 841.75,460.64 C849.40,461.19 851.24,460.99 855.28,459.20 C860.02,457.11 867.37,452.04 866.68,451.35 C866.47,451.14 863.65,452.19 860.40,453.68 C854.55,456.37 846.53,457.33 842.79,455.80 C841.28,455.18 841.48,454.44 844.55,449.35 C851.65,437.55 857.85,416.70 856.59,408.82 C855.78,403.79 853.57,399.43 850.26,396.36 C846.52,392.89 843.89,393.23 847.25,396.75 C853.64,403.45 853.69,410.73 847.42,421.26 C838.90,435.58 830.34,440.82 811.80,443.08 C801.82,444.29 784.89,443.03 775.88,440.40 C768.21,438.16 755.90,431.24 742.81,421.82 C717.61,403.68 719.68,404.83 709.84,403.37 C699.25,401.80 693.20,399.32 686.85,393.97 C681.52,389.47 680.99,389.87 681.02,398.33 C681.05,409.15 686.62,426.00 690.16,426.00 C690.90,426.00 690.88,425.56 690.09,424.61 C686.90,420.76 688.15,406.00 691.67,406.00 C692.50,406.00 696.86,409.43 701.34,413.62 C719.35,430.43 732.53,437.61 754.31,442.44 C757.50,443.15 766.26,450.77 765.43,452.12 C765.13,452.60 762.27,453.00 759.07,453.00 C752.07,453.00 747.76,454.45 738.50,459.89 C718.63,471.56 701.30,478.52 684.50,481.54 C670.69,484.03 646.83,484.52 632.54,482.60 C619.58,480.87 600.75,480.53 594.75,481.92 C589.90,483.05 589.95,481.72 594.90,478.45 C600.11,475.00 606.65,473.13 617.41,472.01 C630.44,470.66 631.93,467.66 620.38,466.03 C606.72,464.11 575.51,468.55 553.94,475.48 C533.55,482.03 521.41,488.69 498.64,505.83 C485.29,515.88 467.99,527.00 465.70,527.00 C465.36,527.00 466.62,523.96 468.49,520.25 C472.70,511.92 475.21,502.80 478.51,483.82 C479.91,475.75 481.99,466.30 483.13,462.82 C488.06,447.71 499.68,428.23 511.67,414.94 C518.20,407.71 527.00,399.26 527.00,400.22 C527.00,400.48 524.52,404.47 521.48,409.09 C510.17,426.32 502.28,444.63 500.52,457.75 C500.13,460.64 500.04,463.00 500.31,463.00 C500.59,463.00 501.93,461.09 503.31,458.75 C508.87,449.29 522.57,434.62 532.50,427.51 C540.36,421.87 552.65,415.76 562.00,412.84 C572.14,409.67 590.59,409.42 593.89,412.40 C597.51,415.67 596.59,419.15 589.94,427.41 C586.61,431.56 582.03,436.53 579.76,438.47 C577.49,440.41 575.96,442.00 576.34,442.00 C576.73,442.00 580.27,440.38 584.21,438.39 C604.15,428.35 627.11,421.57 645.29,420.35 C650.67,419.99 655.27,419.37 655.51,418.98 C656.07,418.07 641.46,411.30 633.50,408.78 C629.88,407.64 620.74,406.33 610.47,405.49 C567.09,401.95 542.39,390.91 498.50,355.46 C471.45,333.61 460.64,329.40 434.00,330.32 C426.02,330.59 418.49,331.13 417.25,331.52 C415.99,331.92 415.00,331.81 415.00,331.28 C415.00,330.75 420.20,328.86 426.55,327.07 C468.86,315.15 509.87,317.25 538.00,332.79 C544.18,336.20 555.81,346.52 554.72,347.62 C554.43,347.90 552.02,347.04 549.35,345.70 C540.20,341.09 530.90,338.50 523.52,338.50 C517.53,338.50 516.49,338.76 516.18,340.35 C515.63,343.14 525.67,352.31 533.68,356.33 C560.43,369.77 609.52,375.93 635.40,369.09 C644.72,366.63 654.72,361.30 658.57,356.75 C662.88,351.65 666.01,343.87 666.27,337.62 C666.40,334.54 666.62,332.01 666.77,332.01 C666.92,332.00 668.72,333.11 670.77,334.46 C678.99,339.89 690.28,341.58 697.67,338.50 C699.65,337.67 704.38,334.05 708.19,330.46 C719.37,319.91 729.81,313.27 738.00,311.49 C743.69,310.25 752.64,310.76 756.03,312.52 C759.88,314.51 760.99,313.75 758.41,310.90 C755.86,308.08 752.20,306.28 746.41,304.98 C739.44,303.42 730.10,305.18 717.10,310.50 C701.88,316.74 694.56,318.31 683.33,317.75 C675.77,317.37 673.39,316.83 669.71,314.68 C664.62,311.69 661.58,306.51 662.58,302.52 C663.87,297.41 675.03,291.00 682.62,291.00 C683.87,291.00 685.18,290.52 685.54,289.93 C686.41,288.53 673.37,289.68 666.50,291.61 C656.39,294.46 645.60,302.41 637.67,312.85 C633.57,318.26 628.00,327.23 628.00,328.43 C628.00,328.74 631.62,329.00 636.05,329.00 C649.18,329.00 653.85,332.75 653.16,342.75 C652.91,346.30 646.05,353.05 639.57,356.12 C625.46,362.81 615.00,360.50 592.50,345.75 C570.14,331.09 539.53,316.41 518.95,310.49 C506.24,306.83 489.80,304.52 481.41,305.22 C478.43,305.46 476.00,305.35 476.00,304.97 C476.00,303.40 489.61,299.98 499.69,299.02 C507.53,298.27 515.99,298.33 530.50,299.22 C541.50,299.90 557.92,300.43 567.00,300.40 C587.42,300.33 595.04,298.64 626.67,287.15 C666.66,272.63 675.15,270.57 694.50,270.68 C701.65,270.72 709.75,271.22 712.49,271.79 C718.28,273.00 719.16,272.33 718.76,267.10 C718.59,264.82 717.67,263.09 716.00,261.86 C713.05,259.70 702.61,258.05 691.75,258.02 C687.49,258.01 684.01,257.66 684.02,257.25 C684.03,256.84 686.50,255.43 689.52,254.13 C701.17,249.08 707.96,239.90 704.87,233.38 C701.26,225.78 683.55,223.42 668.37,228.51 C657.85,232.04 653.94,234.20 633.00,247.99 C605.16,266.34 588.59,273.80 563.77,279.18 C548.66,282.45 521.91,282.26 494.00,278.68 C452.75,273.38 437.92,272.97 418.85,276.59 C402.86,279.62 383.62,286.97 370.23,295.16 C362.95,299.62 362.34,299.79 364.45,296.75 C366.52,293.78 380.17,280.00 381.04,280.00 C381.42,280.00 381.50,281.16 381.23,282.58 L 380.73 285.17 L 386.05 282.48 C407.43,271.64 431.65,266.25 471.50,263.46 C498.16,261.59 502.69,260.37 518.83,250.72 C529.20,244.52 539.96,239.00 541.67,239.00 C542.00,239.00 540.24,241.18 537.74,243.84 C532.75,249.18 530.60,252.83 529.54,257.75 C528.94,260.54 529.29,261.44 531.98,264.13 L 535.12 267.27 L 543.81 266.74 C560.34,265.74 574.55,258.70 588.51,244.60 C598.57,234.44 603.74,225.96 604.67,218.11 C605.19,213.72 604.97,212.88 602.67,210.58 C600.31,208.22 599.40,208.00 591.80,208.03 C585.82,208.04 581.62,208.69 576.75,210.35 C573.04,211.62 570.00,212.31 570.00,211.88 C570.00,211.46 572.30,208.84 575.12,206.08 C589.82,191.60 624.71,182.24 653.73,184.97 C669.18,186.43 677.79,188.15 705.00,195.21 C730.62,201.86 738.80,202.78 744.69,199.69 C751.64,196.03 752.78,190.77 747.60,186.23 C739.60,179.20 724.78,174.73 703.50,172.92 C696.35,172.32 690.34,171.67 690.15,171.48 C689.96,171.29 692.66,169.69 696.15,167.92 C733.83,148.89 790.45,153.48 819.86,177.96 C829.72,186.17 831.80,194.40 825.60,200.60 C823.20,203.00 821.29,204.00 819.10,204.00 C813.88,204.00 815.66,205.81 821.60,206.56 C828.63,207.43 833.68,205.99 837.50,202.00 C839.94,199.45 840.47,197.97 840.79,192.73 C841.39,183.19 838.40,176.31 830.08,168.08 C819.75,157.85 811.32,154.01 780.50,145.52 C760.52,140.01 747.95,133.29 745.75,126.95 C742.29,116.95 774.27,102.55 792.45,105.91 C799.86,107.28 801.80,108.45 802.76,112.17 L 803.57 115.29 L 806.29 112.07 C809.67,108.05 809.73,104.64 806.49,101.40 C802.60,97.51 797.83,96.00 789.44,96.00 C772.84,96.00 746.40,103.62 723.50,115.01 C694.55,129.40 684.69,141.25 694.48,149.85 C696.40,151.53 699.77,153.45 701.98,154.11 C704.19,154.78 706.00,155.63 706.00,156.02 C706.00,156.88 696.37,161.17 689.50,163.38 C675.34,167.94 662.35,170.05 642.50,171.02 C612.93,172.47 597.03,175.65 574.81,184.57 C555.17,192.45 539.51,201.81 514.13,220.82 C488.77,239.81 472.26,248.32 453.51,252.05 C442.85,254.17 426.00,255.58 426.00,254.35 C426.00,253.87 430.52,251.96 436.04,250.09 C455.24,243.59 465.24,236.03 482.90,214.66 C494.62,200.48 505.98,189.06 518.19,179.19 C538.46,162.80 563.93,148.49 584.00,142.22 L 585.29 141.82 C593.47,139.27 596.97,138.17 597.33,138.81 C597.60,139.30 596.09,140.77 593.44,143.34 C593.26,143.51 593.07,143.69 592.88,143.88 C586.33,150.25 585.73,152.50 590.01,154.77 C595.34,157.60 615.20,153.62 628.63,147.02 C637.60,142.61 646.08,135.64 647.94,131.14 C649.82,126.60 648.93,122.02 645.68,119.60 C643.36,117.87 641.11,117.44 633.05,117.16 C617.29,116.61 607.95,119.80 577.85,136.03 C557.13,147.19 544.76,152.11 536.00,152.65 L 529.50 153.06 L 534.03 151.13 C545.95,146.06 552.96,140.89 570.37,124.30 C585.25,110.11 590.94,106.08 602.73,101.32 C615.07,96.35 626.92,93.45 648.97,90.02 C671.92,86.45 684.69,83.01 706.47,74.50 C715.28,71.06 727.00,66.78 732.50,65.00 C744.78,61.02 750.03,56.84 748.44,52.30 C747.17,48.71 743.70,47.03 737.46,47.01 C727.05,46.98 719.52,49.92 691.52,64.94 C673.92,74.38 667.26,76.69 642.19,82.02 C634.66,83.62 627.38,85.21 626.00,85.55 L 623.50 86.17 L 626.00 84.12 C628.61,81.99 634.88,79.18 653.65,71.72 C667.48,66.22 674.78,61.38 692.18,46.17 C714.57,26.58 722.27,21.79 737.47,18.00 C745.31,16.04 748.16,15.83 759.97,16.29 C769.41,16.66 776.78,17.60 784.35,19.38 C794.37,21.74 795.48,21.83 798.75,20.46 C805.50,17.64 806.70,13.60 801.97,9.63 C797.76,6.08 793.07,5.01 781.75,5.01 C776.39,5.00 772.00,4.61 772.00,4.14 C772.00,3.41 776.73,2.44 789.00,0.64 C789.01,0.64 789.01,0.64 789.01,0.64 C789.01,0.44 612.57,0.21 395.75,0.14 L 0.00 0.00 L 0.12 243.75 C0.18,376.23 0.58,482.85 1.01,482.85 C1.02,482.85 1.02,482.83 1.03,482.80 C2.84,472.06 12.21,460.97 24.67,454.84 C30.36,452.04 32.60,451.52 40.54,451.18 C46.27,450.92 51.20,451.24 53.52,452.01 C57.91,453.45 63.55,458.31 67.53,464.05 C69.09,466.29 72.42,469.34 74.93,470.81 C78.99,473.20 80.48,473.49 88.34,473.44 L 97.19 473.37 L 91.68 476.16 C74.51,484.84 51.80,486.16 38.04,479.27 C33.32,476.91 32.54,476.13 32.77,474.00 C33.28,469.18 38.21,464.71 45.47,462.50 C48.89,461.45 45.12,460.03 38.88,460.02 C23.76,459.97 13.28,469.35 12.24,483.84 C10.69,505.53 25.77,523.68 50.63,530.03 C79.44,537.40 108.46,529.41 131.64,507.72 C135.14,504.45 138.00,502.10 138.00,502.50 C138.00,504.27 130.31,513.44 123.59,519.69 C114.27,528.35 107.48,532.39 94.70,536.90 L 84.50 540.49 L 66.50 540.50 C52.29,540.50 47.14,540.12 42.03,538.71 C25.00,534.01 11.63,524.12 5.51,511.69 C3.56,507.73 1.57,502.48 1.09,500.00 C0.58,497.35 0.17,560.79 0.11,654.25 ZM 273.66 644.43 C270.45,645.87 265.38,648.61 262.41,650.52 C259.43,652.42 257.00,653.61 257.00,653.16 C257.00,652.71 259.59,649.80 262.75,646.68 C277.64,632.01 291.72,624.75 331.06,611.45 C355.57,603.16 366.86,598.23 377.17,591.32 C386.01,585.39 390.22,579.45 389.79,573.50 C389.53,569.86 389.23,569.48 386.50,569.22 C384.07,569.00 381.61,570.42 373.50,576.76 C351.06,594.31 342.29,598.33 320.71,600.98 C312.35,602.01 294.00,601.41 294.00,600.11 C294.01,599.77 296.03,598.67 298.50,597.65 C306.21,594.48 318.82,586.31 338.00,572.03 C361.79,554.33 367.25,550.86 385.88,541.65 C401.88,533.73 405.23,531.59 413.40,524.03 C423.92,514.29 424.93,501.96 415.19,502.02 C408.00,502.06 396.69,508.94 375.00,526.47 C358.09,540.13 355.72,541.67 338.47,550.17 C330.24,554.23 321.36,559.03 318.75,560.82 C316.14,562.62 314.00,563.83 314.00,563.51 C314.00,559.49 346.60,522.26 348.47,524.14 C348.77,524.43 347.21,527.46 345.00,530.87 C338.97,540.21 339.75,541.46 347.66,535.12 C353.78,530.21 357.32,526.39 369.53,511.50 C388.13,488.81 399.11,479.22 412.94,473.60 C425.27,468.59 432.27,463.94 441.52,454.60 C447.90,448.17 451.66,443.37 454.34,438.22 C467.94,412.16 466.77,389.94 451.26,379.88 L 446.50 376.79 L 450.45 377.48 C458.51,378.88 468.17,385.70 471.74,392.50 C474.04,396.89 475.97,404.85 475.99,410.00 C476.00,415.42 469.09,456.18 464.96,475.00 C456.92,511.68 444.24,543.13 427.69,567.41 C418.88,580.35 400.01,599.06 387.43,607.34 C365.59,621.72 345.95,628.71 310.00,634.92 C290.95,638.21 282.64,640.38 273.66,644.43 ZM 224.00 539.82 C220.43,542.37 214.01,547.79 209.75,551.86 C201.34,559.90 199.86,560.35 205.72,553.10 C218.13,537.74 227.24,529.26 245.17,516.39 C254.04,510.02 258.00,504.58 258.00,498.75 C258.00,493.40 250.93,494.64 242.62,501.45 C237.03,506.04 231.20,508.02 223.62,507.92 L 217.50 507.83 L 223.11 506.63 C230.25,505.09 232.31,503.70 242.30,493.63 C252.23,483.63 256.99,479.97 261.26,479.04 C263.35,478.58 264.37,477.83 264.14,476.92 C263.95,476.14 263.56,467.85 263.28,458.50 C262.70,438.68 264.31,423.68 269.00,405.52 C276.30,377.18 285.13,363.67 304.50,351.19 C316.48,343.47 341.25,328.92 341.68,329.35 C342.39,330.06 332.88,337.95 320.95,346.52 C314.60,351.09 306.49,357.92 302.93,361.69 C292.36,372.90 284.99,389.54 281.38,410.36 C279.13,423.30 279.92,447.44 282.95,458.50 C284.15,462.90 285.45,466.82 285.83,467.21 C286.21,467.60 287.86,465.35 289.48,462.21 C293.58,454.30 307.43,440.73 317.50,434.76 C325.56,430.00 339.94,423.69 345.50,422.48 C347.61,422.03 346.57,422.93 342.03,425.53 C313.77,441.67 297.59,464.23 290.78,497.00 C288.54,507.79 288.74,522.63 291.26,531.75 C293.17,538.68 291.65,538.74 284.92,532.02 C279.88,526.98 274.46,517.19 271.90,508.52 C271.16,506.04 270.30,504.00 269.99,504.00 C269.67,504.00 268.87,506.02 268.21,508.49 C266.13,516.26 261.34,520.34 245.06,528.18 C237.05,532.03 227.57,537.27 224.00,539.82 ZM 1258.00 330.24 C1254.85,331.65 1250.66,332.36 1244.00,332.63 C1232.47,333.10 1226.35,331.62 1206.92,323.65 C1183.02,313.86 1177.91,312.65 1159.72,312.47 C1144.02,312.31 1143.92,312.29 1141.11,309.60 C1138.54,307.14 1138.36,306.52 1139.10,302.70 C1140.18,297.14 1140.14,276.68 1139.05,271.00 C1137.99,265.53 1138.56,265.04 1146.06,265.02 C1157.43,264.98 1176.17,271.35 1187.84,279.20 C1190.70,281.13 1198.32,287.43 1204.77,293.21 C1220.26,307.08 1228.03,312.83 1236.50,316.71 C1246.74,321.41 1255.22,323.32 1263.20,322.75 L 1269.93 322.27 L 1266.22 325.26 C1264.17,326.90 1260.47,329.14 1258.00,330.24 ZM 84.21 512.56 C76.55,513.92 73.49,514.05 67.25,513.28 C61.43,512.55 63.82,511.31 72.25,510.67 C85.91,509.64 96.15,505.39 107.53,496.06 C119.28,486.42 127.41,475.48 146.97,443.00 C169.03,406.37 180.85,392.44 196.96,384.10 C207.56,378.61 213.80,377.00 224.43,377.01 C239.72,377.03 249.78,380.93 255.04,388.88 C256.95,391.76 257.99,394.61 257.98,396.92 C257.96,403.29 257.09,403.50 248.91,399.12 C233.54,390.88 215.00,391.03 197.13,399.52 C183.19,406.14 168.85,422.21 145.85,457.00 C131.26,479.07 120.55,492.64 112.67,499.07 C104.47,505.76 93.70,510.86 84.21,512.56 ZM 208.93 701.54 C203.29,705.90 190.00,713.66 190.00,712.61 C190.00,712.29 192.86,709.18 196.34,705.69 C204.53,697.51 215.19,681.86 213.64,680.30 C213.36,680.02 209.95,681.33 206.06,683.20 C202.18,685.07 199.00,686.23 199.00,685.76 C199.00,683.73 203.86,678.65 208.48,675.84 C216.09,671.20 218.00,669.11 218.00,665.36 C218.00,658.00 211.93,659.02 199.96,668.39 C191.75,674.82 183.25,679.08 177.56,679.64 L 173.50 680.03 L 177.41 678.51 C183.09,676.31 186.89,673.11 196.15,662.74 C200.68,657.66 206.89,651.57 209.95,649.21 C221.37,640.38 223.51,636.06 224.40,620.00 C225.20,605.40 227.89,599.09 235.21,594.63 C241.11,591.04 247.97,590.10 251.48,592.40 C255.16,594.81 254.62,597.75 249.62,602.54 C240.42,611.36 238.13,618.00 234.99,645.10 C232.74,664.50 230.37,675.39 226.95,682.10 C224.32,687.26 216.47,695.73 208.93,701.54 ZM 252.45 813.00 L 249.98 810.62 C236.80,797.96 225.05,789.27 211.46,782.12 C199.24,775.70 197.11,771.16 203.69,765.61 C212.29,758.37 215.81,754.36 216.84,750.60 C218.29,745.37 216.70,738.27 212.92,733.05 C209.64,728.52 210.67,727.77 216.30,730.62 C222.92,733.96 227.00,739.40 227.00,744.87 C227.00,746.51 225.64,751.23 223.99,755.37 C220.34,764.49 219.43,770.59 221.23,773.99 C222.01,775.46 226.41,778.62 232.02,781.74 C245.66,789.30 254.81,794.00 255.90,794.00 C256.42,794.00 258.25,792.81 259.98,791.37 C263.27,788.59 267.44,781.05 270.54,772.25 C273.26,764.54 274.39,765.67 273.70,775.41 C272.68,789.97 267.37,803.83 260.53,809.84 L 256.93 813.00 L 252.45 813.00 ZM 282.98 755.75 C283.02,758.00 281.55,756.99 278.23,752.48 C276.43,750.04 271.59,745.76 267.47,742.98 C255.86,735.15 252.45,728.36 253.22,714.62 C253.77,704.72 256.86,696.85 266.99,679.51 C274.05,667.44 275.27,664.30 272.51,665.36 C264.94,668.26 253.73,671.10 252.27,670.47 C250.84,669.86 251.10,669.58 253.66,669.00 C255.40,668.61 261.02,665.43 266.16,661.94 C277.82,654.01 290.08,650.43 291.63,654.49 C291.97,655.36 288.66,661.48 283.63,669.27 C268.59,692.59 262.00,708.46 262.00,721.33 C262.00,728.84 264.07,733.14 269.88,737.72 C272.42,739.72 275.55,742.51 276.84,743.93 C279.31,746.65 282.94,753.64 282.98,755.75 ZM 1056.43 269.50 C1055.80,272.86 1055.90,273.00 1058.73,273.00 C1062.51,273.00 1065.03,270.20 1065.66,265.33 C1066.07,262.19 1065.57,260.62 1062.91,256.64 C1055.95,246.22 1043.42,239.02 1030.85,238.23 C1024.03,237.81 1021.89,238.16 1011.36,241.48 C1001.85,244.48 998.40,245.12 993.79,244.79 C988.07,244.38 988.06,244.38 988.67,246.94 C990.38,254.09 995.58,258.00 1003.38,258.00 C1014.47,258.00 1021.78,261.77 1024.05,268.66 C1025.38,272.69 1027.20,273.17 1026.05,269.19 C1024.74,264.62 1022.16,260.23 1019.82,258.59 C1018.62,257.74 1014.38,256.33 1010.39,255.44 C1006.41,254.56 1002.33,253.21 1001.33,252.45 C999.64,251.17 999.74,251.06 1002.57,251.03 C1004.27,251.01 1008.99,249.84 1013.07,248.43 C1023.36,244.86 1032.66,244.78 1040.10,248.19 C1051.07,253.21 1057.83,262.04 1056.43,269.50 ZM 266.09 579.95 C262.20,581.94 254.47,583.27 252.00,582.38 C251.18,582.08 249.87,581.64 249.10,581.40 C248.31,581.14 249.96,579.83 252.89,578.37 C261.43,574.11 267.56,564.06 270.19,550.00 C271.25,544.32 270.83,533.02 269.42,529.50 C268.70,527.69 268.79,527.64 270.39,528.94 C275.09,532.76 280.00,547.65 280.00,558.08 C280.00,568.24 275.65,575.08 266.09,579.95 ZM 248.99 444.69 C249.00,447.55 248.55,450.16 248.00,450.50 C246.62,451.35 242.37,446.59 238.62,440.00 C234.12,432.07 230.51,430.50 216.84,430.50 L 206.18 430.50 L 197.04 435.16 C192.01,437.72 188.03,439.45 188.20,439.01 C188.92,437.07 199.01,429.66 204.53,427.01 C211.87,423.48 217.72,422.06 225.07,422.02 C240.97,421.95 248.98,429.54 248.99,444.69 ZM 777.93 420.70 C780.71,421.49 785.82,421.84 790.96,421.59 C798.69,421.23 800.18,420.80 808.23,416.60 C814.33,413.41 818.24,412.00 820.96,412.00 C826.59,412.00 826.70,410.54 821.24,408.23 L 820.98 408.12 C816.15,406.08 814.13,405.23 812.63,405.78 C811.52,406.20 810.70,407.39 809.25,409.45 C804.51,416.17 798.90,419.33 790.83,419.81 C785.30,420.15 783.24,419.79 778.83,417.76 C770.83,414.07 763.48,407.50 753.63,395.23 C746.50,386.34 744.14,384.07 741.63,383.63 C733.95,382.28 726.19,381.93 722.50,382.76 L 718.50 383.67 L 724.00 384.45 C736.78,386.28 740.85,389.00 757.00,406.56 C763.97,414.14 770.60,418.62 777.93,420.70 ZM 964.00 566.55 C964.00,566.80 962.39,567.00 960.42,567.00 C956.14,567.00 951.00,562.50 951.00,558.76 C951.00,553.81 954.41,545.04 961.99,530.50 C970.62,513.95 976.06,499.49 978.88,485.61 C980.65,476.89 980.75,476.67 981.40,480.50 C982.75,488.48 976.67,510.93 967.99,530.00 C962.43,542.23 959.00,552.78 959.00,557.65 C959.00,559.99 959.80,561.89 961.50,563.59 C962.88,564.97 964.00,566.30 964.00,566.55 ZM 963.09 223.74 C965.52,224.97 969.03,225.98 970.89,225.99 L 974.29 226.00 L 967.54 219.81 C963.83,216.41 953.89,205.90 945.45,196.46 C937.01,187.02 926.82,176.25 922.81,172.53 C902.09,153.34 877.53,139.81 870.53,143.72 C869.18,144.48 870.16,144.97 875.09,146.02 C882.87,147.67 897.54,155.05 908.28,162.71 C920.75,171.61 931.35,182.82 942.00,198.38 C955.40,217.96 958.09,221.20 963.09,223.74 ZM 1023.09 417.57 C1022.86,417.81 1023.34,418.00 1024.17,418.00 C1026.17,418.00 1044.07,408.76 1049.33,405.02 C1057.22,399.40 1057.41,399.20 1056.11,397.63 C1055.45,396.84 1054.52,394.81 1054.03,393.12 C1052.61,388.14 1054.59,383.27 1060.34,377.65 C1063.18,374.88 1064.60,372.97 1063.50,373.41 C1062.40,373.85 1060.36,374.55 1058.97,374.97 C1050.29,377.59 1040.72,385.43 1039.52,390.93 C1039.02,393.20 1039.42,395.19 1040.97,398.16 L 1043.10 402.26 L 1040.80 404.77 C1039.54,406.15 1035.13,409.50 1031.01,412.21 C1026.89,414.93 1023.33,417.34 1023.09,417.57 ZM 956.98 516.63 C952.12,519.85 943.70,520.77 939.59,518.54 C933.33,515.13 932.45,510.40 936.62,502.56 C940.18,495.87 941.15,492.15 939.93,489.87 C938.81,487.77 939.96,487.36 941.80,489.20 C943.57,490.97 943.26,495.20 941.02,500.14 C938.51,505.68 938.50,508.24 940.98,510.48 C943.70,512.95 950.82,512.05 956.07,508.57 C961.03,505.29 967.10,496.10 970.75,486.35 C975.74,473.03 976.19,479.19 971.33,494.27 C968.33,503.58 962.14,513.22 956.98,516.63 ZM 987.80 543.60 C982.59,546.30 976.92,544.64 974.94,539.85 C973.22,535.70 974.31,528.61 978.99,513.65 C981.19,506.58 983.00,500.17 983.00,499.40 C983.00,498.63 983.45,498.00 984.00,498.00 L 984.03 498.00 C984.27,498.00 984.46,498.00 984.60,498.09 C985.25,498.48 984.78,500.74 982.07,513.48 L 982.00 513.84 C980.35,521.62 979.00,529.60 979.00,531.56 C979.00,538.88 983.03,541.32 986.93,536.37 C989.22,533.45 989.54,530.87 987.96,527.93 C986.39,524.99 989.51,525.42 992.66,528.57 C994.78,530.69 995.14,531.77 994.66,534.70 C994.02,538.67 991.82,541.52 987.80,543.60 Z" fill="rgb(35,31,32)"/>
<path d="M 789.00 0.64 C781.06,1.80 776.27,2.62 773.89,3.25 C775.40,2.78 777.70,2.23 780.25,1.76 C784.34,0.99 775.53,0.60 708.34,0.39 C758.93,0.47 789.01,0.55 789.01,0.64 C789.01,0.64 789.01,0.64 789.00,0.64 ZM 0.80 474.35 C0.96,479.94 1.14,481.76 1.37,480.93 C4.09,470.81 12.08,461.56 23.08,455.66 C11.42,461.93 2.76,472.52 1.03,482.80 C1.02,482.83 1.02,482.85 1.01,482.85 C0.94,482.85 0.87,479.89 0.80,474.35 ZM 0.87 503.23 C0.94,500.72 1.01,499.60 1.09,500.00 C1.57,502.48 3.56,507.73 5.51,511.69 C5.55,511.77 5.59,511.85 5.63,511.93 C4.14,509.15 2.89,506.19 1.89,503.05 C1.45,501.68 1.12,500.98 0.87,503.23 ZM 12.88 522.12 C17.19,526.65 22.61,530.58 28.87,533.70 C28.76,533.65 28.64,533.60 28.53,533.54 C22.43,530.60 17.19,526.77 12.88,522.12 ZM 825.87 5.25 C833.56,8.02 840.38,11.86 848.02,17.46 C840.72,12.10 833.40,8.06 825.87,5.25 ZM 807.85 0.63 C807.28,0.64 806.99,0.65 806.99,0.66 C806.99,0.66 806.99,0.66 807.00,0.67 C808.44,0.89 809.83,1.13 811.18,1.38 C809.31,1.08 807.41,0.85 805.50,0.68 C805.48,0.68 805.47,0.68 805.47,0.68 C805.47,0.66 806.28,0.64 807.85,0.63 ZM 32.83 535.53 C35.74,536.76 38.80,537.82 41.99,538.70 C38.94,537.97 36.07,536.94 32.83,535.53 Z" fill="rgb(93,90,91)"/>
<path d="M 199.08 659.56 C198.06,660.63 197.07,661.71 196.15,662.74 C186.89,673.11 183.09,676.31 177.41,678.51 L 173.50 680.03 L 177.56 679.64 C178.03,679.59 178.51,679.52 179.02,679.42 C174.33,680.63 169.85,681.15 168.25,680.43 C167.06,679.90 168.53,679.43 172.81,678.97 C180.87,678.11 184.67,675.48 195.88,663.00 C196.89,661.88 197.97,660.72 199.08,659.56 ZM 564.99 142.68 L 564.48 142.94 C559.52,145.49 551.87,148.75 547.48,150.18 C538.24,153.19 528.00,154.71 528.00,153.07 C528.00,152.48 529.01,152.00 530.25,152.00 C532.72,151.99 542.03,147.41 548.74,143.05 C543.89,146.48 539.47,148.82 534.03,151.13 L 529.50 153.06 L 536.00 152.65 C542.78,152.23 551.71,149.20 564.99,142.68 ZM 682.62 291.00 C681.24,291.00 679.75,291.21 678.21,291.59 C679.87,290.98 681.00,290.41 681.00,290.13 C681.00,289.22 672.72,290.11 667.20,291.42 C674.22,289.60 686.38,288.57 685.54,289.93 C685.18,290.52 683.87,291.00 682.62,291.00 ZM 642.93 118.19 C640.88,117.60 637.71,117.50 630.67,117.50 C625.48,117.50 621.55,117.67 617.70,118.36 C622.81,117.24 627.54,116.97 633.05,117.16 C638.21,117.34 640.99,117.58 642.93,118.19 ZM 821.93 203.37 C821.66,203.50 821.37,203.63 821.08,203.76 C817.89,205.10 817.72,205.35 819.50,206.06 C819.83,206.20 820.20,206.31 820.59,206.41 C815.47,205.61 814.19,204.00 819.10,204.00 C820.08,204.00 821.00,203.80 821.93,203.37 ZM 576.48 136.76 C576.93,136.52 577.39,136.28 577.85,136.03 C588.31,130.39 596.27,126.33 602.85,123.45 C599.06,125.19 594.59,127.43 589.00,130.31 C585.08,132.33 580.63,134.63 576.48,136.76 ZM 809.40 0.61 C810.18,0.90 812.04,1.41 814.38,1.96 C813.32,1.75 812.25,1.56 811.18,1.38 C809.83,1.13 808.44,0.89 807.00,0.67 C806.99,0.66 806.99,0.66 806.99,0.66 C806.99,0.65 807.28,0.64 807.85,0.63 C808.30,0.62 808.82,0.62 809.40,0.61 ZM 0.87 503.23 C1.12,500.98 1.45,501.68 1.89,503.05 C2.22,504.09 2.57,505.11 2.96,506.11 C2.40,504.84 1.81,503.47 1.19,502.00 C1.03,501.63 0.90,503.31 0.78,507.21 C0.81,505.63 0.84,504.31 0.87,503.23 ZM 1.09 480.34 L 2.69 477.04 C2.16,478.32 1.72,479.62 1.37,480.93 C1.27,481.30 1.17,481.14 1.09,480.34 ZM 828.09 197.18 C827.09,199.59 825.19,201.63 822.49,203.09 C823.47,202.53 824.48,201.72 825.60,200.60 C826.68,199.52 827.51,198.37 828.09,197.18 ZM 838.67 200.66 C839.94,198.64 840.58,196.09 840.79,192.73 C840.53,196.99 840.13,198.77 838.67,200.66 ZM 772.11 3.95 C771.92,3.53 773.24,3.05 776.27,2.60 C775.36,2.83 774.55,3.05 773.89,3.25 C772.90,3.51 772.33,3.74 772.11,3.95 ZM 674.16 292.92 C669.19,294.96 664.57,298.30 663.02,301.38 C664.57,298.29 669.20,294.77 674.16,292.92 ZM 825.87 5.25 C823.28,4.29 820.67,3.47 818.02,2.80 C823.00,3.99 827.88,5.75 832.78,8.13 C830.52,7.06 828.24,6.10 825.87,5.25 ZM 824.19 182.12 C825.67,183.74 826.85,185.28 827.34,186.30 C827.57,186.79 827.78,187.28 827.96,187.76 C827.14,185.92 825.88,184.03 824.19,182.12 ZM 184.85 677.58 C187.30,676.56 189.94,675.18 192.64,673.51 C190.64,674.78 188.77,675.86 187.41,676.50 C186.61,676.88 185.75,677.24 184.85,677.58 ZM 12.88 522.12 C13.52,522.81 14.17,523.48 14.85,524.13 C12.53,521.99 10.68,519.92 8.93,517.37 C10.12,519.02 11.44,520.61 12.88,522.12 ZM 678.21 291.59 C677.48,291.86 676.64,292.13 675.75,292.39 C675.22,292.55 674.69,292.73 674.16,292.92 C675.50,292.37 676.87,291.92 678.21,291.59 ZM 15.68 460.48 C18.39,458.34 21.40,456.45 24.66,454.85 C24.13,455.11 23.60,455.38 23.08,455.66 L 23.08 455.66 C20.42,457.08 17.95,458.70 15.68,460.48 ZM 645.68 119.60 C646.73,120.38 647.54,121.40 648.09,122.56 C647.54,121.40 646.73,120.38 645.67,119.60 C645.51,119.48 645.35,119.36 645.19,119.25 C645.35,119.36 645.52,119.48 645.68,119.60 ZM 560.72 133.27 C561.79,132.30 562.91,131.28 564.05,130.24 C562.89,131.31 561.78,132.32 560.72,133.27 Z" fill="rgb(162,160,161)"/>
<path d="M 0.07 656.25 C0.12,545.52 0.44,500.23 1.19,502.00 C6.45,514.48 9.39,519.18 15.27,524.52 C22.09,530.69 31.99,535.94 42.03,538.71 C47.14,540.12 52.29,540.50 66.50,540.50 L 84.50 540.49 L 94.70 536.90 C107.48,532.39 114.27,528.35 123.59,519.69 C130.31,513.44 138.00,504.27 138.00,502.50 C138.00,502.10 135.14,504.45 131.64,507.72 C108.46,529.41 79.44,537.40 50.63,530.03 C25.77,523.68 10.69,505.53 12.24,483.84 C13.28,469.35 23.76,459.97 38.88,460.02 C45.12,460.03 48.89,461.45 45.47,462.50 C38.21,464.71 33.28,469.18 32.77,474.00 C32.54,476.13 33.32,476.91 38.04,479.27 C51.80,486.16 74.51,484.84 91.68,476.16 L 97.19 473.37 L 88.34 473.44 C80.48,473.49 78.99,473.20 74.93,470.81 C72.42,469.34 69.09,466.29 67.53,464.05 C63.55,458.31 57.91,453.45 53.52,452.01 C51.20,451.24 46.27,450.92 40.54,451.18 C32.60,451.52 30.36,452.04 24.67,454.84 C15.09,459.56 7.72,466.71 3.51,475.36 L 0.03 482.50 L 0.02 241.25 L 0.00 0.00 L 392.25 0.02 C630.99,0.02 783.93,0.39 783.05,0.95 C782.25,1.45 779.44,2.16 776.80,2.53 C768.73,3.64 771.45,5.00 781.75,5.01 C793.07,5.01 797.76,6.08 801.97,9.63 C806.70,13.60 805.50,17.64 798.75,20.46 C795.48,21.83 794.37,21.74 784.35,19.38 C776.78,17.60 769.41,16.66 759.97,16.29 C748.16,15.83 745.31,16.04 737.47,18.00 C722.27,21.79 714.57,26.58 692.18,46.17 C674.78,61.38 667.48,66.22 653.65,71.72 C634.88,79.18 628.61,81.99 626.00,84.12 L 623.50 86.17 L 626.00 85.55 C627.38,85.21 634.66,83.62 642.19,82.02 C667.26,76.69 673.92,74.38 691.52,64.94 C719.52,49.92 727.05,46.98 737.46,47.01 C743.70,47.03 747.17,48.71 748.44,52.30 C750.03,56.84 744.78,61.02 732.50,65.00 C727.00,66.78 715.28,71.06 706.47,74.50 C684.69,83.01 671.92,86.45 648.97,90.02 C626.92,93.45 615.07,96.35 602.73,101.32 C590.89,106.10 585.43,110.00 569.94,124.73 C562.55,131.76 554.25,139.16 551.49,141.16 C544.92,145.96 533.09,151.99 530.25,152.00 C529.01,152.00 528.00,152.48 528.00,153.07 C528.00,154.71 538.24,153.19 547.48,150.18 C551.87,148.75 559.52,145.49 564.48,142.94 C569.44,140.39 580.47,134.71 589.00,130.31 C611.17,118.89 615.68,117.50 630.67,117.50 C641.47,117.50 643.17,117.74 645.67,119.60 C648.93,122.01 649.83,126.59 647.94,131.14 C646.08,135.64 637.60,142.61 628.63,147.02 C615.20,153.62 595.34,157.60 590.01,154.77 C585.73,152.50 586.33,150.25 592.88,143.88 C599.79,137.16 600.05,137.21 584.00,142.22 C563.93,148.49 538.46,162.80 518.19,179.19 C505.98,189.06 494.62,200.48 482.90,214.66 C465.24,236.03 455.24,243.59 436.04,250.09 C430.52,251.96 426.00,253.87 426.00,254.35 C426.00,255.58 442.85,254.17 453.51,252.05 C472.26,248.32 488.77,239.81 514.13,220.82 C539.51,201.81 555.17,192.45 574.81,184.57 C597.03,175.65 612.93,172.47 642.50,171.02 C662.35,170.05 675.34,167.94 689.50,163.38 C696.37,161.17 706.00,156.88 706.00,156.02 C706.00,155.63 704.19,154.78 701.98,154.11 C699.77,153.45 696.40,151.53 694.48,149.85 C684.69,141.25 694.55,129.40 723.50,115.01 C746.40,103.62 772.84,96.00 789.44,96.00 C797.83,96.00 802.60,97.51 806.49,101.40 C809.73,104.64 809.67,108.05 806.29,112.07 L 803.57 115.29 L 802.76 112.17 C801.80,108.45 799.86,107.28 792.45,105.91 C774.27,102.55 742.29,116.95 745.75,126.95 C747.95,133.29 760.52,140.01 780.50,145.52 C811.32,154.01 819.75,157.85 830.08,168.08 C838.39,176.31 841.39,183.19 840.80,192.72 C840.36,199.68 838.06,203.17 832.28,205.63 C828.78,207.12 822.68,207.33 819.50,206.06 C817.72,205.35 817.89,205.10 821.08,203.76 C828.42,200.66 830.88,193.77 827.34,186.30 C826.43,184.38 823.06,180.63 819.86,177.96 C790.45,153.48 733.83,148.89 696.15,167.92 C692.66,169.69 689.96,171.29 690.15,171.48 C690.34,171.67 696.35,172.32 703.50,172.92 C724.78,174.73 739.60,179.20 747.60,186.23 C752.78,190.77 751.64,196.03 744.69,199.69 C738.80,202.78 730.62,201.86 705.00,195.21 C677.79,188.15 669.18,186.43 653.73,184.97 C624.71,182.24 589.82,191.60 575.12,206.08 C572.30,208.84 570.00,211.46 570.00,211.88 C570.00,212.31 573.04,211.62 576.75,210.35 C581.62,208.69 585.82,208.04 591.80,208.03 C599.40,208.00 600.31,208.22 602.67,210.58 C604.97,212.88 605.19,213.72 604.67,218.11 C603.74,225.96 598.57,234.44 588.51,244.60 C574.55,258.70 560.34,265.74 543.81,266.74 L 535.12 267.27 L 531.98 264.13 C529.29,261.44 528.94,260.54 529.54,257.75 C530.60,252.83 532.75,249.18 537.74,243.84 C540.24,241.18 542.00,239.00 541.67,239.00 C539.96,239.00 529.20,244.52 518.83,250.72 C502.69,260.37 498.16,261.59 471.50,263.46 C431.65,266.25 407.43,271.64 386.05,282.48 L 380.73 285.17 L 381.23 282.58 C381.50,281.16 381.42,280.00 381.04,280.00 C380.17,280.00 366.52,293.78 364.45,296.75 C362.34,299.79 362.95,299.62 370.23,295.16 C383.62,286.97 402.86,279.62 418.85,276.59 C437.92,272.97 452.75,273.38 494.00,278.68 C521.91,282.26 548.66,282.45 563.77,279.18 C588.59,273.80 605.16,266.34 633.00,247.99 C653.94,234.20 657.85,232.04 668.37,228.51 C683.55,223.42 701.26,225.78 704.87,233.38 C707.96,239.90 701.17,249.08 689.52,254.13 C686.50,255.43 684.03,256.84 684.02,257.25 C684.01,257.66 687.49,258.01 691.75,258.02 C702.61,258.05 713.05,259.70 716.00,261.86 C717.67,263.09 718.59,264.82 718.76,267.10 C719.16,272.33 718.28,273.00 712.49,271.79 C709.75,271.22 701.65,270.72 694.50,270.68 C675.15,270.57 666.66,272.63 626.67,287.15 C595.04,298.64 587.42,300.33 567.00,300.40 C557.92,300.43 541.50,299.90 530.50,299.22 C515.99,298.33 507.53,298.27 499.69,299.02 C489.61,299.98 476.00,303.40 476.00,304.97 C476.00,305.35 478.43,305.46 481.41,305.22 C489.80,304.52 506.24,306.83 518.95,310.49 C539.53,316.41 570.14,331.09 592.50,345.75 C615.00,360.50 625.46,362.81 639.57,356.12 C646.05,353.05 652.91,346.30 653.16,342.75 C653.85,332.75 649.18,329.00 636.05,329.00 C631.62,329.00 628.00,328.74 628.00,328.43 C628.00,327.23 633.57,318.26 637.67,312.85 C645.01,303.18 654.81,295.60 664.34,292.23 C669.12,290.54 681.00,289.04 681.00,290.13 C681.00,290.53 678.64,291.55 675.75,292.39 C669.60,294.20 663.50,298.89 662.58,302.52 C661.58,306.51 664.62,311.69 669.71,314.68 C673.39,316.83 675.77,317.37 683.33,317.75 C694.56,318.31 701.88,316.74 717.10,310.50 C730.10,305.18 739.44,303.42 746.41,304.98 C752.20,306.28 755.86,308.08 758.41,310.90 C760.99,313.75 759.88,314.51 756.03,312.52 C752.64,310.76 743.69,310.25 738.00,311.49 C729.81,313.27 719.37,319.91 708.19,330.46 C704.38,334.05 699.65,337.67 697.67,338.50 C690.28,341.58 678.99,339.89 670.77,334.46 C668.72,333.11 666.92,332.00 666.77,332.01 C666.62,332.01 666.40,334.54 666.27,337.62 C666.01,343.87 662.88,351.65 658.57,356.75 C654.72,361.30 644.72,366.63 635.40,369.09 C609.52,375.93 560.43,369.77 533.68,356.33 C525.67,352.31 515.63,343.14 516.18,340.35 C516.49,338.76 517.53,338.50 523.52,338.50 C530.90,338.50 540.20,341.09 549.35,345.70 C552.02,347.04 554.43,347.90 554.72,347.62 C555.81,346.52 544.18,336.20 538.00,332.79 C509.87,317.25 468.86,315.15 426.55,327.07 C420.20,328.86 415.00,330.75 415.00,331.28 C415.00,331.81 415.99,331.92 417.25,331.52 C418.49,331.13 426.02,330.59 434.00,330.32 C460.64,329.40 471.45,333.61 498.50,355.46 C542.39,390.91 567.09,401.95 610.47,405.49 C620.74,406.33 629.88,407.64 633.50,408.78 C641.46,411.30 656.07,418.07 655.51,418.98 C655.27,419.37 650.67,419.99 645.29,420.35 C627.11,421.57 604.15,428.35 584.21,438.39 C580.27,440.38 576.73,442.00 576.34,442.00 C575.96,442.00 577.49,440.41 579.76,438.47 C582.03,436.53 586.61,431.56 589.94,427.41 C596.59,419.15 597.51,415.67 593.89,412.40 C590.59,409.42 572.14,409.67 562.00,412.84 C552.65,415.76 540.36,421.87 532.50,427.51 C522.57,434.62 508.87,449.29 503.31,458.75 C501.93,461.09 500.59,463.00 500.31,463.00 C500.04,463.00 500.13,460.64 500.52,457.75 C502.28,444.63 510.17,426.32 521.48,409.09 C524.52,404.47 527.00,400.48 527.00,400.22 C527.00,399.26 518.20,407.71 511.67,414.94 C499.68,428.23 488.06,447.71 483.13,462.82 C481.99,466.30 479.91,475.75 478.51,483.82 C475.21,502.80 472.70,511.92 468.49,520.25 C466.62,523.96 465.36,527.00 465.70,527.00 C467.99,527.00 485.29,515.88 498.64,505.83 C521.41,488.69 533.55,482.03 553.94,475.48 C575.51,468.55 606.72,464.11 620.38,466.03 C631.93,467.66 630.44,470.66 617.41,472.01 C606.65,473.13 600.11,475.00 594.90,478.45 C589.95,481.72 589.90,483.05 594.75,481.92 C600.75,480.53 619.58,480.87 632.54,482.60 C646.83,484.52 670.69,484.03 684.50,481.54 C701.30,478.52 718.63,471.56 738.50,459.89 C747.76,454.45 752.07,453.00 759.07,453.00 C762.27,453.00 765.13,452.60 765.43,452.12 C766.26,450.77 757.50,443.15 754.31,442.44 C732.53,437.61 719.35,430.43 701.34,413.62 C696.86,409.43 692.50,406.00 691.67,406.00 C688.15,406.00 686.90,420.76 690.09,424.61 C690.88,425.56 690.90,426.00 690.16,426.00 C686.62,426.00 681.05,409.15 681.02,398.33 C680.99,389.87 681.52,389.47 686.85,393.97 C693.20,399.32 699.25,401.80 709.84,403.37 C719.68,404.83 717.61,403.68 742.81,421.82 C755.90,431.24 768.21,438.16 775.88,440.40 C784.89,443.03 801.82,444.29 811.80,443.08 C830.34,440.82 838.90,435.58 847.42,421.26 C853.69,410.73 853.64,403.45 847.25,396.75 C843.89,393.23 846.52,392.89 850.26,396.36 C853.57,399.43 855.78,403.79 856.59,408.82 C857.85,416.70 851.65,437.55 844.55,449.35 C841.48,454.44 841.28,455.18 842.79,455.80 C846.53,457.33 854.55,456.37 860.40,453.68 C863.65,452.19 866.47,451.14 866.68,451.35 C867.37,452.04 860.02,457.11 855.28,459.20 C851.24,460.99 849.40,461.19 841.75,460.64 C834.16,460.10 832.35,460.29 829.10,461.95 C821.70,465.72 817.16,472.85 813.55,486.38 C812.39,490.71 810.60,494.53 808.72,496.67 C807.08,498.54 805.58,499.92 805.40,499.73 C805.21,499.54 805.98,497.52 807.11,495.24 C808.24,492.95 809.24,488.92 809.33,486.29 L 809.50 481.50 L 800.00 480.78 C794.78,480.39 786.18,479.35 780.90,478.47 C775.62,477.59 769.32,477.01 766.90,477.19 C762.65,477.49 762.41,477.69 759.82,483.00 C753.70,495.54 747.46,526.46 748.20,540.58 C748.56,547.47 749.19,549.93 752.07,555.61 C753.95,559.35 756.25,562.85 757.16,563.39 C758.36,564.10 761.60,563.57 768.66,561.49 C781.38,557.76 792.95,551.96 797.07,547.26 C802.06,541.59 806.05,531.82 806.96,523.09 C807.77,515.34 809.54,510.00 811.30,510.00 C812.48,510.00 811.50,523.63 809.92,529.34 C809.33,531.46 809.02,533.36 809.23,533.57 C809.44,533.77 813.19,532.04 817.56,529.72 L 825.50 525.50 L 839.71 525.78 C855.74,526.10 858.25,525.48 864.82,519.54 C869.62,515.20 889.45,488.85 893.88,480.93 C895.59,477.86 898.73,471.07 900.86,465.84 C905.11,455.39 909.51,447.99 915.70,440.85 C924.16,431.07 926.21,422.71 924.08,406.66 C921.45,386.92 916.24,373.63 907.60,364.67 C901.25,358.07 896.45,355.74 872.00,347.38 C861.28,343.71 848.90,339.17 844.50,337.29 C840.10,335.40 835.94,333.62 835.25,333.32 C834.34,332.93 834.00,334.18 834.00,337.83 C834.00,340.60 833.52,344.14 832.93,345.68 C831.89,348.43 828.23,353.00 827.08,353.00 C826.76,353.00 826.49,348.61 826.49,343.25 C826.47,334.60 826.15,332.85 823.64,327.71 C817.78,315.71 805.22,304.91 786.52,295.82 L 775.62 290.53 L 780.46 289.71 C783.25,289.25 787.24,289.32 789.89,289.88 C796.26,291.24 797.38,290.11 796.73,282.96 C795.80,272.67 789.85,264.93 777.96,258.53 C770.77,254.65 771.41,254.35 782.31,256.43 C792.06,258.30 799.27,262.01 802.91,267.03 C804.50,269.23 808.40,278.06 811.58,286.66 C818.62,305.74 822.76,312.27 832.43,319.54 C842.38,327.03 855.23,332.75 878.00,339.83 C898.85,346.30 907.77,349.82 909.91,352.39 C911.89,354.77 912.76,354.40 914.87,350.25 C918.88,342.35 921.00,333.12 921.00,323.51 C921.00,302.66 914.33,280.64 903.66,266.27 C899.06,260.07 891.96,254.00 889.32,254.00 C888.56,254.00 885.74,255.74 883.06,257.86 C874.64,264.51 865.43,265.27 858.58,259.88 C855.09,257.14 855.78,256.59 860.31,258.49 C867.79,261.61 874.00,259.74 878.96,252.89 C884.28,245.56 885.10,235.14 881.49,221.00 C880.87,218.57 880.92,218.58 883.42,221.50 C886.98,225.65 889.29,233.21 889.55,241.50 L 889.77 248.50 L 896.19 253.64 C911.26,265.70 921.59,280.32 924.90,294.26 C926.06,299.15 928.16,322.94 927.74,326.48 C927.55,328.02 928.35,328.68 931.28,329.42 C937.65,331.02 940.13,329.46 941.61,322.92 C942.31,319.85 944.07,314.67 945.53,311.42 C948.01,305.88 948.15,304.76 947.75,294.00 C947.42,284.93 946.78,280.95 944.74,275.17 C941.86,267.05 937.24,258.86 932.17,252.91 C927.45,247.37 929.96,248.06 935.82,253.91 C944.88,262.97 951.25,274.89 955.01,289.77 L 956.09 294.04 L 959.46 291.46 C961.55,289.87 966.98,287.80 973.67,286.04 C979.63,284.48 987.14,282.03 990.37,280.60 C997.66,277.37 997.92,277.38 994.92,280.64 C991.82,284.02 981.50,290.74 972.37,295.33 C962.06,300.50 954.49,310.27 949.36,325.00 C944.15,339.99 945.13,355.04 953.64,390.75 C955.12,396.94 956.69,402.00 957.14,402.00 C958.38,402.00 961.18,396.16 963.11,389.50 C964.83,383.58 964.86,383.55 964.91,387.50 C965.01,394.84 962.12,405.39 957.51,414.50 C952.11,425.18 951.79,428.90 955.75,434.77 C958.40,438.70 965.40,445.00 967.10,445.00 C969.18,445.00 970.39,439.64 970.73,429.00 C971.20,414.08 971.45,413.00 974.43,413.00 C977.13,413.00 980.92,416.99 983.00,422.00 C984.30,425.14 984.23,425.36 981.21,427.88 C977.22,431.22 976.41,433.51 974.85,446.01 C973.64,455.76 973.67,456.40 975.64,459.86 C979.53,466.71 992.44,473.44 997.00,471.00 C1000.55,469.10 1002.28,465.25 1002.39,458.96 C1002.49,453.29 1003.13,451.79 1004.50,454.00 C1005.92,456.30 1010.23,454.64 1018.14,448.74 C1027.66,441.64 1035.85,437.43 1054.50,430.03 C1061.65,427.19 1069.22,423.74 1071.33,422.37 C1076.12,419.24 1078.55,414.01 1077.11,409.89 C1075.93,406.50 1076.36,406.38 1081.01,408.85 C1087.39,412.23 1089.80,412.33 1095.61,409.49 C1101.19,406.76 1106.42,401.47 1110.70,394.21 C1114.74,387.38 1125.03,363.86 1124.42,362.87 C1124.11,362.38 1121.98,361.02 1119.68,359.85 C1113.39,356.67 1101.70,348.96 1102.28,348.38 C1102.56,348.10 1106.33,349.65 1110.65,351.82 C1134.37,363.73 1169.92,378.94 1186.79,384.38 C1201.95,389.28 1212.28,391.00 1226.45,391.00 C1246.86,391.00 1264.04,385.09 1274.74,374.39 L 1280.00 369.13 L 1280.00 591.07 L 1280.00 813.00 L 768.47 813.00 L 256.93 813.00 L 260.53 809.84 C267.37,803.83 272.68,789.97 273.70,775.41 C274.39,765.67 273.26,764.54 270.54,772.25 C267.44,781.05 263.27,788.59 259.98,791.37 C258.25,792.81 256.42,794.00 255.90,794.00 C254.81,794.00 245.66,789.30 232.02,781.74 C226.41,778.62 222.01,775.46 221.23,773.99 C219.43,770.59 220.34,764.49 223.99,755.37 C225.64,751.23 227.00,746.51 227.00,744.87 C227.00,739.40 222.92,733.96 216.30,730.62 C210.67,727.77 209.64,728.52 212.92,733.05 C216.70,738.27 218.29,745.37 216.84,750.60 C215.81,754.36 212.29,758.37 203.69,765.61 C197.11,771.16 199.24,775.70 211.46,782.12 C225.05,789.27 236.80,797.96 249.98,810.62 L 252.45 813.00 L 126.23 813.00 L 0.00 813.00 L 0.07 656.25 ZM 282.98 755.75 C282.94,753.64 279.31,746.65 276.84,743.93 C275.55,742.51 272.42,739.72 269.88,737.72 C264.07,733.14 262.00,728.84 262.00,721.33 C262.00,708.46 268.59,692.59 283.63,669.27 C288.66,661.48 291.97,655.36 291.63,654.49 C290.08,650.43 277.82,654.01 266.16,661.94 C261.02,665.43 255.40,668.61 253.66,669.00 C251.10,669.58 250.84,669.86 252.27,670.47 C253.73,671.10 264.94,668.26 272.51,665.36 C275.27,664.30 274.05,667.44 266.99,679.51 C256.86,696.85 253.77,704.72 253.22,714.62 C252.45,728.36 255.86,735.15 267.47,742.98 C271.59,745.76 276.43,750.04 278.23,752.48 C281.55,756.99 283.02,758.00 282.98,755.75 ZM 208.93 701.54 C216.47,695.73 224.32,687.26 226.95,682.10 C230.37,675.39 232.74,664.50 234.99,645.10 C238.13,618.00 240.42,611.36 249.62,602.54 C254.62,597.75 255.16,594.81 251.48,592.40 C247.97,590.10 241.11,591.04 235.21,594.63 C227.89,599.09 225.20,605.40 224.40,620.00 C223.51,636.05 221.38,640.36 209.96,649.21 C206.92,651.57 200.58,657.78 195.88,663.00 C184.67,675.48 180.87,678.11 172.81,678.97 C168.53,679.43 167.06,679.90 168.25,680.43 C170.85,681.59 181.08,679.49 187.41,676.50 C190.46,675.06 196.11,671.41 199.96,668.39 C211.93,659.02 218.00,658.00 218.00,665.36 C218.00,669.11 216.09,671.20 208.48,675.84 C203.86,678.65 199.00,683.73 199.00,685.76 C199.00,686.23 202.18,685.07 206.06,683.20 C209.95,681.33 213.36,680.02 213.64,680.30 C215.19,681.86 204.53,697.51 196.34,705.69 C192.86,709.18 190.00,712.29 190.00,712.61 C190.00,713.66 203.29,705.90 208.93,701.54 ZM 273.66 644.43 C282.64,640.38 290.95,638.21 310.00,634.92 C345.95,628.71 365.59,621.72 387.43,607.34 C400.01,599.06 418.88,580.35 427.69,567.41 C444.24,543.13 456.92,511.68 464.96,475.00 C469.09,456.18 476.00,415.42 475.99,410.00 C475.97,404.85 474.04,396.89 471.74,392.50 C468.17,385.70 458.51,378.88 450.45,377.48 L 446.50 376.79 L 451.26 379.88 C466.77,389.94 467.94,412.16 454.34,438.22 C451.66,443.37 447.90,448.17 441.52,454.60 C432.27,463.94 425.27,468.59 412.94,473.60 C399.11,479.22 388.13,488.81 369.53,511.50 C357.32,526.39 353.78,530.21 347.66,535.12 C339.75,541.46 338.97,540.21 345.00,530.87 C347.21,527.46 348.77,524.43 348.47,524.14 C346.60,522.26 314.00,559.49 314.00,563.51 C314.00,563.83 316.14,562.62 318.75,560.82 C321.36,559.03 330.24,554.23 338.47,550.17 C355.72,541.67 358.09,540.13 375.00,526.47 C396.69,508.94 408.00,502.06 415.19,502.02 C424.93,501.96 423.92,514.29 413.40,524.03 C405.23,531.59 401.88,533.73 385.88,541.65 C367.25,550.86 361.79,554.33 338.00,572.03 C318.82,586.31 306.21,594.48 298.50,597.65 C296.03,598.67 294.01,599.77 294.00,600.11 C294.00,601.41 312.35,602.01 320.71,600.98 C342.29,598.33 351.06,594.31 373.50,576.76 C381.61,570.42 384.07,569.00 386.50,569.22 C389.23,569.48 389.53,569.86 389.79,573.50 C390.22,579.45 386.01,585.39 377.17,591.32 C366.86,598.23 355.57,603.16 331.06,611.45 C291.72,624.75 277.64,632.01 262.75,646.68 C259.59,649.80 257.00,652.71 257.00,653.16 C257.00,653.61 259.43,652.42 262.41,650.52 C265.38,648.61 270.45,645.87 273.66,644.43 ZM 266.09 579.95 C275.65,575.08 280.00,568.24 280.00,558.08 C280.00,547.65 275.09,532.76 270.39,528.94 C268.79,527.64 268.70,527.69 269.42,529.50 C270.83,533.02 271.25,544.32 270.19,550.00 C267.56,564.06 261.43,574.11 252.89,578.37 C249.96,579.83 248.31,581.14 249.10,581.40 C249.87,581.64 251.18,582.08 252.00,582.38 C254.47,583.27 262.20,581.94 266.09,579.95 ZM 964.00 566.55 C964.00,566.30 962.88,564.97 961.50,563.59 C959.80,561.89 959.00,559.99 959.00,557.65 C959.00,552.78 962.43,542.23 967.99,530.00 C976.67,510.93 982.75,488.48 981.40,480.50 C980.75,476.67 980.65,476.89 978.88,485.61 C976.06,499.49 970.62,513.95 961.99,530.50 C954.41,545.04 951.00,553.81 951.00,558.76 C951.00,562.50 956.14,567.00 960.42,567.00 C962.39,567.00 964.00,566.80 964.00,566.55 ZM 224.00 539.82 C227.57,537.27 237.05,532.03 245.06,528.18 C261.34,520.34 266.13,516.26 268.21,508.49 C268.87,506.02 269.67,504.00 269.99,504.00 C270.30,504.00 271.16,506.04 271.90,508.52 C274.46,517.19 279.88,526.98 284.92,532.02 C291.65,538.74 293.17,538.68 291.26,531.75 C288.74,522.63 288.54,507.79 290.78,497.00 C297.59,464.23 313.77,441.67 342.03,425.53 C346.57,422.93 347.61,422.03 345.50,422.48 C339.94,423.69 325.56,430.00 317.50,434.76 C307.43,440.73 293.58,454.30 289.48,462.21 C287.86,465.35 286.21,467.60 285.83,467.21 C285.45,466.82 284.15,462.90 282.95,458.50 C279.92,447.44 279.13,423.30 281.38,410.36 C284.99,389.54 292.36,372.90 302.93,361.69 C306.49,357.92 314.60,351.09 320.95,346.52 C332.88,337.95 342.39,330.06 341.68,329.35 C341.25,328.92 316.48,343.47 304.50,351.19 C285.13,363.67 276.30,377.18 269.00,405.52 C264.31,423.68 262.70,438.68 263.28,458.50 C263.56,467.85 263.95,476.14 264.14,476.92 C264.37,477.83 263.35,478.58 261.26,479.04 C256.99,479.97 252.23,483.63 242.30,493.63 C232.31,503.70 230.25,505.09 223.11,506.63 L 217.50 507.83 L 223.62 507.92 C231.20,508.02 237.03,506.04 242.62,501.45 C250.93,494.64 258.00,493.40 258.00,498.75 C258.00,504.58 254.04,510.02 245.17,516.39 C227.24,529.26 218.13,537.74 205.72,553.10 C199.86,560.35 201.34,559.90 209.75,551.86 C214.01,547.79 220.43,542.37 224.00,539.82 ZM 987.80 543.60 C991.82,541.52 994.02,538.67 994.66,534.70 C995.14,531.77 994.78,530.69 992.66,528.57 C989.51,525.42 986.39,524.99 987.96,527.93 C989.54,530.87 989.22,533.45 986.93,536.37 C983.03,541.32 979.00,538.88 979.00,531.56 C979.00,529.60 980.35,521.62 982.00,513.84 C985.38,497.88 985.37,498.00 984.00,498.00 C983.45,498.00 983.00,498.63 983.00,499.40 C983.00,500.17 981.19,506.58 978.99,513.65 C974.31,528.61 973.22,535.70 974.94,539.85 C976.92,544.64 982.59,546.30 987.80,543.60 ZM 956.98 516.63 C962.14,513.22 968.33,503.58 971.33,494.27 C976.19,479.19 975.74,473.03 970.75,486.35 C967.10,496.10 961.03,505.29 956.07,508.57 C950.82,512.05 943.70,512.95 940.98,510.48 C938.50,508.24 938.51,505.68 941.02,500.14 C943.26,495.20 943.57,490.97 941.80,489.20 C939.96,487.36 938.81,487.77 939.93,489.87 C941.15,492.15 940.18,495.87 936.62,502.56 C932.45,510.40 933.33,515.13 939.59,518.54 C943.70,520.77 952.12,519.85 956.98,516.63 ZM 84.21 512.56 C93.70,510.86 104.47,505.76 112.67,499.07 C120.55,492.64 131.26,479.07 145.85,457.00 C168.85,422.21 183.19,406.14 197.13,399.52 C215.00,391.03 233.54,390.88 248.91,399.12 C257.09,403.50 257.96,403.29 257.98,396.92 C257.99,394.61 256.95,391.76 255.04,388.88 C249.78,380.93 239.72,377.03 224.43,377.01 C213.80,377.00 207.56,378.61 196.96,384.10 C180.85,392.44 169.03,406.37 146.97,443.00 C127.41,475.48 119.28,486.42 107.53,496.06 C96.15,505.39 85.91,509.64 72.25,510.67 C63.82,511.31 61.43,512.55 67.25,513.28 C73.49,514.05 76.55,513.92 84.21,512.56 ZM 248.99 444.69 C248.98,429.54 240.97,421.95 225.07,422.02 C217.72,422.06 211.87,423.48 204.53,427.01 C199.01,429.66 188.92,437.07 188.20,439.01 C188.03,439.45 192.01,437.72 197.04,435.16 L 206.18 430.50 L 216.84 430.50 C230.51,430.50 234.12,432.07 238.62,440.00 C242.37,446.59 246.62,451.35 248.00,450.50 C248.55,450.16 249.00,447.55 248.99,444.69 ZM 777.93 420.70 C770.60,418.62 763.97,414.14 757.00,406.56 C740.85,389.00 736.78,386.28 724.00,384.45 L 718.50 383.67 L 722.50 382.76 C726.19,381.93 733.95,382.28 741.63,383.63 C744.14,384.07 746.50,386.34 753.63,395.23 C763.48,407.50 770.83,414.07 778.83,417.76 C783.24,419.79 785.30,420.15 790.83,419.81 C798.90,419.33 804.51,416.17 809.25,409.45 C812.70,404.56 812.58,404.57 821.24,408.23 C826.70,410.54 826.59,412.00 820.96,412.00 C818.24,412.00 814.33,413.41 808.23,416.60 C800.18,420.80 798.69,421.23 790.96,421.59 C785.82,421.84 780.71,421.49 777.93,420.70 ZM 1023.09 417.57 C1023.33,417.34 1026.89,414.93 1031.01,412.21 C1035.13,409.50 1039.54,406.15 1040.80,404.77 L 1043.10 402.26 L 1040.97 398.16 C1039.42,395.19 1039.02,393.20 1039.52,390.93 C1040.72,385.43 1050.29,377.59 1058.97,374.97 C1060.36,374.55 1062.40,373.85 1063.50,373.41 C1064.60,372.97 1063.18,374.88 1060.34,377.65 C1054.59,383.27 1052.61,388.14 1054.03,393.12 C1054.52,394.81 1055.45,396.84 1056.11,397.63 C1057.41,399.20 1057.22,399.40 1049.33,405.02 C1044.07,408.76 1026.17,418.00 1024.17,418.00 C1023.34,418.00 1022.86,417.81 1023.09,417.57 ZM 1225.85 371.96 C1216.97,369.43 1209.08,365.86 1200.00,360.29 C1188.29,353.10 1159.96,331.42 1144.00,317.44 C1125.87,301.56 1113.31,292.13 1102.73,286.45 C1095.49,282.57 1093.73,282.03 1088.15,282.02 C1082.29,282.00 1081.55,282.25 1078.50,285.30 C1074.53,289.27 1072.00,297.00 1072.00,305.18 C1072.00,312.09 1070.41,312.89 1069.44,306.47 C1066.82,288.98 1074.87,276.36 1088.50,276.58 C1096.52,276.72 1111.30,284.30 1126.73,296.20 C1130.15,298.84 1133.19,301.00 1133.48,301.00 C1134.56,301.00 1133.94,289.92 1132.42,281.86 C1127.76,257.19 1114.82,220.19 1102.24,195.57 C1097.28,185.86 1095.23,183.09 1085.52,173.00 C1079.43,166.68 1072.79,159.48 1070.75,157.00 C1067.65,153.25 1067.04,152.86 1067.02,154.66 C1067.01,155.85 1067.88,159.66 1068.96,163.12 C1070.04,166.58 1070.74,169.59 1070.53,169.81 C1069.60,170.73 1051.25,151.79 1045.77,144.25 C1042.47,139.71 1039.54,136.00 1039.25,136.00 C1038.33,136.00 1040.11,148.33 1041.52,151.71 C1042.28,153.52 1042.63,155.00 1042.31,155.00 C1041.98,155.00 1035.14,148.80 1027.11,141.21 C999.33,115.00 976.86,95.67 954.00,78.33 C929.39,59.67 922.31,55.46 893.86,42.60 C872.46,32.93 859.15,25.63 848.02,17.46 C837.38,9.65 827.29,4.83 816.75,2.51 C812.49,1.57 809.00,0.62 809.00,0.40 C809.00,0.18 914.97,0.00 1044.50,0.00 L 1280.00 0.00 L 1280.00 183.97 L 1280.00 367.94 L 1274.73 369.48 C1257.92,374.36 1237.85,375.38 1225.85,371.96 ZM 1258.00 330.24 C1260.47,329.14 1264.17,326.90 1266.22,325.26 L 1269.93 322.27 L 1263.20 322.75 C1255.22,323.32 1246.74,321.41 1236.50,316.71 C1228.03,312.83 1220.26,307.08 1204.77,293.21 C1198.32,287.43 1190.70,281.13 1187.84,279.20 C1176.17,271.35 1157.43,264.98 1146.06,265.02 C1138.56,265.04 1137.99,265.53 1139.05,271.00 C1140.14,276.68 1140.18,297.14 1139.10,302.70 C1138.36,306.52 1138.54,307.14 1141.11,309.60 C1143.92,312.29 1144.02,312.31 1159.72,312.47 C1177.91,312.65 1183.02,313.86 1206.92,323.65 C1226.35,331.62 1232.47,333.10 1244.00,332.63 C1250.66,332.36 1254.85,331.65 1258.00,330.24 ZM 1056.43 269.50 C1057.83,262.04 1051.07,253.21 1040.10,248.19 C1032.66,244.78 1023.36,244.86 1013.07,248.43 C1008.99,249.84 1004.27,251.01 1002.57,251.03 C999.74,251.06 999.64,251.17 1001.33,252.45 C1002.33,253.21 1006.41,254.56 1010.39,255.44 C1014.38,256.33 1018.62,257.74 1019.82,258.59 C1022.16,260.23 1024.74,264.62 1026.05,269.19 C1027.20,273.17 1025.38,272.69 1024.05,268.66 C1021.78,261.77 1014.47,258.00 1003.38,258.00 C995.58,258.00 990.38,254.09 988.67,246.94 C988.06,244.38 988.07,244.38 993.79,244.79 C998.40,245.12 1001.85,244.48 1011.36,241.48 C1021.89,238.16 1024.03,237.81 1030.85,238.23 C1043.42,239.02 1055.95,246.22 1062.91,256.64 C1065.57,260.62 1066.07,262.19 1065.66,265.33 C1065.03,270.20 1062.51,273.00 1058.73,273.00 C1055.90,273.00 1055.80,272.86 1056.43,269.50 ZM 963.09 223.74 C958.09,221.20 955.40,217.96 942.00,198.38 C931.35,182.82 920.75,171.61 908.28,162.71 C897.54,155.05 882.87,147.67 875.09,146.02 C870.16,144.97 869.18,144.48 870.53,143.72 C877.53,139.81 902.09,153.34 922.81,172.53 C926.82,176.25 937.01,187.02 945.45,196.46 C953.89,205.90 963.83,216.41 967.54,219.81 L 974.29 226.00 L 970.89 225.99 C969.03,225.98 965.52,224.97 963.09,223.74 Z" fill="rgb(254,254,254)"/>
</g>
</svg>