<svg xmlns="http://www.w3.org/2000/svg" width="400" height="400" viewBox="0 0 400 400">
<g>
<path d="M 141.25 307.55 C134.64,313.62 129.93,311.89 117.49,298.82 C112.82,293.92 106.42,286.05 103.25,281.34 C93.22,266.41 89.34,257.69 81.94,233.45 C81.43,231.77 80.28,224.12 79.39,216.45 C75.77,185.27 81.34,163.05 98.60,139.86 C112.21,121.59 130.40,109.63 154.50,103.13 C162.03,101.10 177.34,99.77 185.29,100.47 C199.05,101.66 215.25,106.55 225.59,112.60 C231.15,115.86 230.47,117.18 224.71,114.33 C213.33,108.70 208.08,106.60 203.50,105.84 C186.72,103.05 181.44,102.51 172.14,102.63 C161.87,102.75 160.17,103.09 146.42,107.65 C142.53,108.94 138.67,110.00 137.83,110.00 C136.99,110.00 135.49,110.90 134.49,112.01 C133.49,113.11 130.98,114.52 128.92,115.14 C122.57,117.04 103.93,134.29 97.00,144.66 C88.97,156.69 84.98,165.76 82.80,177.00 C82.31,179.48 81.38,184.20 80.71,187.50 C79.31,194.46 79.50,212.69 81.07,221.45 C81.66,224.78 83.24,230.77 84.57,234.77 C85.91,238.77 87.01,243.27 87.02,244.77 C87.03,246.27 87.92,248.62 89.00,250.00 C90.08,251.38 90.97,253.34 90.98,254.36 C91.00,255.99 95.51,265.04 103.13,278.75 C104.44,281.09 106.32,283.27 107.33,283.59 C108.33,283.92 108.91,284.42 108.62,284.71 C107.72,285.62 116.80,296.18 124.12,302.75 C132.26,310.05 134.81,310.57 139.75,305.94 C141.95,303.88 142.80,303.11 142.86,302.28 C142.90,301.76 142.63,301.23 142.19,300.35 L 142.13 300.24 C140.56,297.07 139.03,291.64 139.56,291.11 C140.87,289.79 144.93,296.70 144.96,300.30 C144.99,303.44 144.34,304.70 141.25,307.55 ZM 138.00 289.20 C138.00,291.22 135.74,289.48 130.08,283.09 C123.36,275.51 111.00,257.49 111.00,255.28 C111.00,254.51 110.55,254.16 110.00,254.50 C109.45,254.84 109.00,254.29 109.00,253.28 C109.00,252.27 108.35,250.52 107.56,249.39 C106.76,248.25 105.45,244.67 104.63,241.41 C101.27,227.99 100.82,226.42 99.87,224.66 C98.28,221.74 98.45,187.13 100.07,181.63 C101.52,176.70 103.66,175.12 102.61,179.75 C97.95,200.16 99.94,221.70 108.54,243.96 C114.50,259.40 124.73,275.59 134.43,284.95 C136.39,286.84 138.00,288.75 138.00,289.20 ZM 236.50 253.89 C231.68,255.21 231.00,255.25 231.00,254.17 C231.00,253.71 234.71,252.07 239.24,250.54 C248.48,247.41 251.60,245.35 262.29,235.31 C269.74,228.31 274.90,215.05 275.71,200.75 C276.03,195.22 276.70,191.00 277.28,191.00 C279.05,191.00 277.39,210.83 275.07,217.42 C268.78,235.31 254.29,249.00 236.50,253.89 ZM 215.00 254.12 C215.00,256.28 203.80,253.04 196.03,248.63 C190.98,245.76 179.63,236.04 180.42,235.25 C180.71,234.96 182.87,236.40 185.22,238.45 C187.58,240.49 190.40,242.94 191.50,243.88 C194.14,246.14 204.30,250.57 210.25,252.05 C212.86,252.70 215.00,253.63 215.00,254.12 ZM 276.56 183.77 C277.70,192.31 275.48,189.87 273.66,180.57 C271.77,170.98 271.69,170.00 272.79,170.00 C273.77,170.00 275.64,176.82 276.56,183.77 ZM 228.45 255.09 C227.55,256.54 216.00,256.23 216.00,254.75 C216.00,253.84 217.78,253.59 222.50,253.84 C226.10,254.02 228.76,254.58 228.45,255.09 ZM 198.99 124.25 C199.00,124.66 198.89,124.96 198.75,124.92 C198.61,124.88 198.05,124.69 197.50,124.51 C196.95,124.33 195.26,123.90 193.75,123.57 C190.98,122.96 189.88,121.00 192.30,121.00 C194.14,121.00 198.98,123.35 198.99,124.25 Z" fill="rgb(230,118,120)"/>
<path d="M 138.00 289.20 C138.00,289.10 137.93,288.95 137.80,288.75 C138.68,289.67 139.30,290.34 139.86,290.95 C139.75,290.97 139.65,291.02 139.56,291.11 C139.03,291.64 140.56,297.07 142.13,300.24 L 142.19 300.35 C142.63,301.23 142.90,301.76 142.86,302.28 C142.80,303.11 141.95,303.88 139.75,305.94 C134.81,310.57 132.26,310.05 124.12,302.75 C116.80,296.18 107.72,285.62 108.62,284.71 C108.91,284.42 108.33,283.92 107.33,283.59 C106.32,283.27 104.44,281.09 103.13,278.75 C95.51,265.04 91.00,255.99 90.98,254.36 C90.97,253.34 90.08,251.38 89.00,250.00 C87.92,248.62 87.03,246.27 87.02,244.77 C87.01,243.27 85.91,238.77 84.57,234.77 C83.24,230.77 81.66,224.78 81.07,221.45 C79.50,212.69 79.31,194.46 80.71,187.50 C81.38,184.20 82.31,179.48 82.80,177.00 C84.98,165.76 88.97,156.69 97.00,144.66 C103.93,134.29 122.57,117.04 128.92,115.14 C130.98,114.52 133.49,113.11 134.49,112.01 C135.49,110.90 136.99,110.00 137.83,110.00 C138.67,110.00 142.53,108.94 146.42,107.65 C160.17,103.09 161.87,102.75 172.14,102.63 C181.44,102.51 186.72,103.05 203.50,105.84 C208.08,106.60 213.33,108.70 224.71,114.33 C229.20,116.55 230.60,116.24 228.37,114.45 C229.62,115.26 230.83,116.09 232.00,116.95 C250.87,130.88 259.42,141.27 269.50,162.50 C270.93,165.53 272.04,167.93 272.92,170.04 C272.88,170.01 272.83,170.00 272.79,170.00 C271.69,170.00 271.77,170.98 273.66,180.57 C275.48,189.87 277.70,192.31 276.56,183.77 C276.49,183.24 276.42,182.72 276.34,182.19 C276.59,183.75 276.83,185.49 277.09,187.50 C277.25,188.71 277.38,189.91 277.48,191.10 C277.42,191.04 277.35,191.00 277.28,191.00 C276.70,191.00 276.03,195.22 275.71,200.75 C274.90,215.05 269.74,228.31 262.29,235.31 C251.60,245.35 248.48,247.41 239.24,250.54 C234.71,252.07 231.00,253.71 231.00,254.17 C231.00,254.64 231.13,254.90 231.69,254.93 C230.42,255.16 229.14,255.35 227.85,255.48 C228.15,255.37 228.35,255.24 228.45,255.09 C228.76,254.58 226.10,254.02 222.50,253.84 C217.78,253.59 216.00,253.84 216.00,254.75 C216.00,255.05 216.46,255.30 217.21,255.49 C215.49,255.31 213.78,255.04 212.07,254.68 C213.87,254.95 215.00,254.81 215.00,254.12 C215.00,253.63 212.86,252.70 210.25,252.05 C204.30,250.57 194.14,246.14 191.50,243.88 C190.40,242.94 187.58,240.49 185.22,238.45 C183.22,236.70 181.35,235.40 180.66,235.23 C176.87,230.54 173.62,225.11 170.98,219.00 C167.79,211.59 167.44,196.40 170.39,193.13 C172.95,190.29 177.89,189.51 182.13,191.28 C185.88,192.85 186.79,194.89 188.89,206.42 C190.76,216.72 197.94,225.78 208.73,231.49 C211.28,232.84 215.01,233.60 220.26,233.85 C235.53,234.57 246.08,228.08 253.50,213.41 C256.22,208.04 256.27,207.60 255.73,195.70 C255.29,186.14 254.58,181.77 252.46,175.50 C243.62,149.30 223.97,130.81 198.92,124.76 C198.97,124.64 198.99,124.46 198.99,124.25 C198.98,123.35 194.14,121.00 192.30,121.00 C189.88,121.00 190.98,122.96 193.75,123.57 C194.62,123.76 195.55,123.98 196.29,124.17 C195.35,123.98 194.41,123.81 193.46,123.65 C162.82,118.62 140.71,125.61 120.38,146.77 C112.69,154.76 104.57,169.14 102.89,177.65 C102.81,175.91 101.23,177.72 100.07,181.63 C98.45,187.13 98.28,221.74 99.87,224.66 C100.82,226.42 101.27,227.99 104.63,241.41 C105.45,244.67 106.76,248.25 107.56,249.39 C108.35,250.52 109.00,252.27 109.00,253.28 C109.00,254.29 109.45,254.84 110.00,254.50 C110.55,254.16 111.00,254.51 111.00,255.28 C111.00,257.49 123.36,275.51 130.08,283.09 C135.74,289.48 138.00,291.22 138.00,289.20 ZM 120.15 266.84 C123.84,272.48 128.17,278.04 133.42,283.96 C128.92,279.41 124.33,273.45 120.15,266.84 ZM 100.60 211.20 C100.82,213.04 101.10,214.95 101.44,217.00 C102.20,221.57 102.82,225.01 103.47,227.99 C102.08,222.34 101.12,216.74 100.60,211.20 ZM 274.46 219.09 C273.41,222.03 272.12,224.82 270.59,227.42 C267.91,231.99 264.66,236.09 261.00,239.66 C266.80,233.94 271.43,226.94 274.46,219.09 ZM 277.75 201.27 C277.57,205.63 277.01,209.79 276.05,213.71 C276.81,210.14 277.42,205.45 277.75,201.27 ZM 143.53 295.35 C144.75,297.15 145.00,298.39 145.00,300.25 C145.00,301.78 144.85,302.87 144.34,303.91 C144.84,302.89 144.98,301.81 144.96,300.30 C144.95,298.92 144.35,297.05 143.53,295.35 ZM 102.12 182.01 C101.35,186.56 100.80,190.40 100.46,193.88 C100.77,189.89 101.32,185.93 102.12,182.01 ZM 166.73 101.07 C167.14,101.01 167.54,100.96 167.95,100.91 C170.89,100.56 173.89,100.37 176.93,100.34 C173.66,100.45 170.13,100.70 166.73,101.07 ZM 198.31 102.52 C203.13,103.54 207.87,104.91 212.39,106.59 C207.91,104.97 203.12,103.58 198.31,102.52 ZM 191.56 245.60 C190.44,244.79 189.35,243.93 188.29,243.04 C189.38,243.92 190.49,244.80 191.56,245.60 Z" fill="rgb(242,102,101)"/>
<path d="M 0.00 200.00 L 0.00 0.00 L 200.00 0.00 L 400.00 0.00 L 400.00 200.00 L 400.00 400.00 L 200.00 400.00 L 0.00 400.00 L 0.00 200.00 ZM 141.25 307.55 C144.34,304.71 145.00,303.42 145.00,300.25 C145.00,296.85 144.17,295.51 137.99,288.94 C123.24,273.27 115.00,260.69 108.54,243.96 C104.59,233.75 103.58,229.89 101.44,217.00 C99.26,203.83 99.53,196.24 102.82,178.00 C104.35,169.53 112.59,154.87 120.38,146.77 C140.71,125.61 162.82,118.62 193.46,123.65 C221.10,128.19 242.98,147.42 252.46,175.50 C254.58,181.77 255.29,186.14 255.73,195.70 C256.27,207.60 256.22,208.04 253.50,213.41 C246.08,228.08 235.53,234.57 220.26,233.85 C215.01,233.60 211.28,232.84 208.73,231.49 C197.94,225.78 190.76,216.72 188.89,206.42 C186.79,194.89 185.88,192.85 182.13,191.28 C177.89,189.51 172.95,190.29 170.39,193.13 C167.44,196.40 167.79,211.59 170.98,219.00 C179.11,237.85 193.08,250.21 211.06,254.45 C233.60,259.77 258.13,248.63 270.59,227.42 C276.87,216.74 279.10,203.02 277.09,187.50 C275.65,176.39 274.86,173.81 269.50,162.50 C259.42,141.27 250.87,130.88 232.00,116.95 C215.42,104.71 189.79,98.29 167.95,100.91 C138.84,104.41 115.05,117.77 98.60,139.86 C81.34,163.05 75.77,185.27 79.39,216.45 C80.28,224.12 81.43,231.77 81.94,233.45 C89.34,257.69 93.22,266.41 103.25,281.34 C106.42,286.05 112.82,293.92 117.49,298.82 C129.93,311.89 134.64,313.62 141.25,307.55 Z" fill="rgb(254,254,254)"/>
</g>
</svg>